<?xml version="1.0" encoding="UTF-8"?>
<svg id="Layer_1" data-name="Layer 1" xmlns="http://www.w3.org/2000/svg" viewBox="0 0 878 253.6">
  <defs>
    <style>
      .cls-1 {
        fill: #5a0a1a;
      }
    </style>
  </defs>
  <path class="cls-1" d="M105.84,153.16c0,6.26-1.17,10.78-3.49,13.44-2.21,2.54-5.68,3.78-10.62,3.78s-12.04-1.43-14.64-13.79l-.8-3.82-42.88,9.65.63,3.61c2.5,14.42,8.41,25.84,17.54,33.94,9.19,8.15,23.74,12.28,43.25,12.28,9.7,0,19.02-2.1,27.72-6.26,8.77-4.19,15.96-10.21,21.35-17.9,5.47-7.8,8.24-16.86,8.24-26.94V42.63h-46.3v110.53Z"/>
  <path class="cls-1" d="M285.81,102.6c0-19.54-4.71-34.56-14-44.64-9.37-10.17-22.37-15.32-38.65-15.32h-73.27v167.39h46.29v-50.34h25.2c35.6,0,54.42-19.74,54.42-57.08ZM239.73,103.49c0,6.16-1.31,10.9-3.9,14.09-2.43,3-6.13,4.45-11.32,4.45h-18.32v-37.31h16.11c12.06,0,17.44,5.79,17.44,18.77Z"/>
  <path class="cls-1" d="M546.9,195.72c-1.45-3.52-2.62-7.29-3.45-11.18l-7.76-37.28c-1.23-5.77-4.2-10.52-8.84-14.11-1.84-1.42-3.93-2.61-6.27-3.57,13.48-8,20.3-21.06,20.3-38.96,0-8.69-1.81-16.77-5.39-24-3.63-7.34-8.87-13.23-15.58-17.51-6.74-4.3-14.71-6.48-23.69-6.48h-81.92v139.08l-46.95-139.3h-51.45l-56.26,167.61h49.74l7.98-28.17h49.18l7.98,28.17h86.06v-55.67h22.1c3.65,0,6.59.72,8.75,2.13,1.9,1.25,3.21,3.66,3.9,7.25l6.65,30.61h0c1.55,7.07,4.2,11.94,8.09,14.89l1.03.79h45.9l-5.54-6.38c-1.64-1.89-3.18-4.56-4.56-7.92ZM498.79,97.27c0,4.69-1.44,8.29-4.42,11.03-3.06,2.82-7.31,4.19-13.02,4.19h-20.77v-31.77h18.77c13.44,0,19.44,5.1,19.44,16.55ZM354.83,139.78h-25.52l12.84-45.18,12.68,45.18Z"/>
  <path class="cls-1" d="M669.92,125.64c-5.94-7.13-13.11-12.36-21.31-15.54-7.77-3.01-17.62-5.83-29.29-8.38-9.91-2.15-17.11-4.23-21.41-6.18-4.09-1.84-4.61-4.31-4.61-6.25,0-2.76,1.12-4.64,3.62-6.09,3.09-1.79,7.29-2.7,12.49-2.7,13.41,0,21.78,6.42,25.57,19.61l1.14,3.96,41.81-15.1-1.22-3.58c-10.16-29.84-31.83-44.97-64.42-44.97-20.06,0-35.85,4.7-46.94,13.99-11.29,9.45-17.01,22.61-17.01,39.1,0,11.96,2.95,21.59,8.75,28.63,5.66,6.86,12.52,11.8,20.38,14.69,7.41,2.72,16.92,5.31,28.19,7.68,7.56,1.75,13.38,3.22,17.29,4.37,3.44,1.02,6.35,2.55,8.66,4.54,1.89,1.64,2.77,3.67,2.77,6.4,0,3.23-1.24,5.67-3.9,7.68-2.92,2.21-7.47,3.32-13.54,3.32-8.94,0-15.71-2.39-20.69-7.32-5.13-5.06-8.47-10.98-9.92-17.6l-.99-4.49-43.25,17.89.82,3.23c3.9,15.47,12.09,27.77,24.33,36.56,12.15,8.72,27.3,13.14,45.05,13.14,14.43,0,26.76-2.49,36.64-7.39,10.04-4.98,17.68-11.91,22.69-20.6,4.98-8.62,7.51-18.41,7.51-29.1,0-12.26-3.1-22.19-9.21-29.52Z"/>
  <rect class="cls-1" x="673.33" y="189.05" width="17.91" height="17.12"/>
  <path class="cls-1" d="M717.06,150.18h-19.91v55.99h19.91c8.86,0,15.55-2.45,20.06-7.35,4.51-4.9,6.77-11.7,6.77-20.41s-2.27-15.66-6.81-20.69c-4.54-5.03-11.21-7.54-20.02-7.54ZM727.25,189.68c-1.76,2.49-5.01,3.73-9.72,3.73h-6.84v-30.48h6.84c4.51,0,7.7,1.26,9.57,3.77,1.87,2.51,2.8,6.39,2.8,11.63s-.88,8.87-2.64,11.35Z"/>
  <polygon class="cls-1" points="762.02 184.24 788.07 184.24 788.07 172.19 762.02 172.19 762.02 162.23 789 162.23 789 150.18 748.49 150.18 748.49 206.17 789.78 206.17 789.78 194.12 762.02 194.12 762.02 184.24"/>
  <polygon class="cls-1" points="830.26 150.1 817.82 193.65 805.38 150.1 790.84 150.1 809.66 206.17 825.75 206.17 844.65 150.1 830.26 150.1"/>
</svg>
